<svg xmlns="http://www.w3.org/2000/svg" xmlns:xlink="http://www.w3.org/1999/xlink" version="1.1" width="1080" height="1080" viewBox="0 0 1080 1080" xml:space="preserve"><g transform="matrix(1 0 0 1 540 540)"><rect style="stroke: none; stroke-width: 1; stroke-dasharray: none; stroke-linecap: butt; stroke-dashoffset: 0; stroke-linejoin: miter; stroke-miterlimit: 4; fill: rgb(255,255,255); fill-rule: nonzero; opacity: 1; visibility: hidden;" vector-effect="non-scaling-stroke"  x="-540" y="-540" rx="0" ry="0" width="1080" height="1080" /></g><g transform="matrix(1 0 0 1 540 390.55)">
<path style="stroke: rgb(0,0,0); stroke-width: 0; stroke-dasharray: none; stroke-linecap: butt; stroke-dashoffset: 0; stroke-linejoin: miter; stroke-miterlimit: 4; fill: rgb(255,255,255); fill-rule: nonzero; opacity: 1;" vector-effect="non-scaling-stroke"  transform=" translate(-501.55, -510.11)" d="M 220.017778 284.444444 C 153.457778 284.444444 100.40888899999999 304.75377699999996 60.928 347.619556 C 20.309333 390.542222 0 444.672 0 510.094222 C 0 575.544889 20.309333 629.703111 60.928 672.5973329999999 C 100.40888899999999 714.3253329999999 153.457778 735.772444 220.017778 735.772444 C 258.38933399999996 735.772444 303.530667 718.848 357.688889 686.136889 C 400.554667 661.304889 447.94311100000004 624.071111 500.992 576.682667 C 555.150222 624.0711110000001 602.538667 661.304889 644.266667 686.136889 C 698.424889 718.848 744.675556 735.772445 783.075556 735.772444 C 848.497778 735.772444 902.656 714.325333 943.274667 672.5973329999999 C 982.784 629.7031109999999 1003.093334 575.5448889999999 1003.093333 510.09422199999995 C 1003.093333 444.6719999999999 982.784 390.51377799999995 943.274667 347.61955599999993 C 902.656 304.753778 848.497778 284.444444 783.075556 284.444444 C 740.209778 284.444444 690.574223 302.506666 631.893333 340.84977799999996 C 593.5217769999999 365.68177799999995 549.5182219999999 399.53066699999994 501.020444 444.67199999999997 C 447.97155499999997 396.14577799999995 400.58311100000003 358.912 357.717333 332.97066699999993 C 303.502222 300.259556 258.389333 284.444444 220.017778 284.444444 z M 783.047111 383.715556 C 820.3093329999999 383.715556 849.607111 395.008 872.192 419.84 C 893.639111 442.396444 904.903111 472.88888899999995 904.903111 510.09422199999995 C 904.903111 546.218666 893.639111 576.6542219999999 872.192 600.3768889999999 C 849.635556 624.0711109999999 820.280889 636.5013329999999 783.047111 636.5013329999999 C 757.105778 636.5013329999999 724.394667 622.933333 683.776 596.992 C 652.174222 576.6826669999999 614.940444 547.356444 574.321778 510.09422199999995 C 614.940445 471.7511109999999 651.036445 443.53422199999994 682.638222 424.36266699999993 C 723.256889 397.2835559999999 757.1057780000001 383.7439999999999 783.0471110000001 383.7439999999999 z M 220.01777800000002 383.715556 C 244.84977800000001 383.715556 278.698667 397.283556 319.317333 425.500444 C 349.781333 444.672 385.877333 472.888888 427.633778 511.232 C 390.4 545.0808890000001 357.660445 571.050667 330.609778 590.222222 C 285.468445 620.686222 248.234667 636.472889 220.01777800000002 636.472889 C 181.64622200000002 636.472889 152.32000000000002 624.071111 130.87288900000001 600.376889 C 108.31644500000002 576.682667 98.16177800000001 546.218667 98.16177800000001 510.094222 C 98.16177800000001 472.888889 108.31644500000002 442.396444 130.87288900000001 419.84000000000003 C 152.32000000000002 395.00800000000004 181.64622200000002 383.71555600000005 220.01777800000002 383.71555600000005 z" stroke-linecap="round" /></g><g transform="matrix(1 0 0 1 540.5 846.3)"><text xml:space="preserve" font-family="Alegreya" font-size="200" font-style="normal" font-weight="700" style="stroke: none; stroke-width: 1; stroke-dasharray: none; stroke-linecap: butt; stroke-dashoffset: 0; stroke-linejoin: miter; stroke-miterlimit: 4; fill: rgb(255,255,255); fill-rule: nonzero; opacity: 1; white-space: pre;" ><tspan x="-345.9" y="62.83" >P</tspan><tspan x="-202.7" y="62.83" >V</tspan><tspan x="-47.9" y="62.83" >P</tspan><tspan x="97.3" y="62.83" >I</tspan><tspan x="170.3" y="62.83" >N</tspan></text></g></svg>